<svg xmlns="http://www.w3.org/2000/svg" viewBox="0 0 24 24" fill="#FFFC00"><path d="M12 0C5.373 0 0 5.373 0 12c0 6.627 5.373 12 12 12s12-5.373 12-12c0-6.627-5.373-12-12-12zm6.75 17.25c-.188.375-.563.75-1.125.75H6.375c-.563 0-.938-.375-1.125-.75-.188-.375-.188-.75-.188-.938V7.688c0-.188 0-.563.188-.938.188-.375.563-.75 1.125-.75h11.25c.563 0 .938.375 1.125.75.188.375.188.75.188.938v8.625c0 .188 0 .563-.188.938zm-1.5-7.5c-.188-.188-.375-.188-.563-.188H7.313c-.188 0-.375 0-.563.188-.188.188-.188.375-.188.563v6.375c0 .188 0 .375.188.563.188.188.375.188.563.188h7.374c.188 0 .375 0 .563-.188.188-.188.188-.375.188-.563V10.313c0-.188 0-.375-.188-.563z"/></svg>
